<svg width="48" height="38" viewBox="0 0 48 38" fill="none" xmlns="http://www.w3.org/2000/svg">
<path d="M10.1409 22.9871C10.1139 23.1832 10.0918 23.3658 10.0746 23.5423C10.0722 23.5619 10.071 23.5803 10.0697 23.5999C10.0501 23.8095 10.0353 24.0019 10.028 24.1833C10.028 24.1931 10.0268 24.2029 10.0268 24.2127H0.613933C0.275042 24.2127 0 23.9382 0 23.5999C0 23.2616 0.275042 22.9871 0.613933 22.9871H10.1409Z" fill="#7600BF"/>
<path d="M14.6495 22.9868C14.6066 23.189 14.571 23.3925 14.5427 23.5996C14.5133 23.8019 14.4924 24.0066 14.4764 24.2125H13.2461C13.2596 24.0066 13.278 23.8019 13.3038 23.5996C13.3296 23.3937 13.3603 23.189 13.3983 22.9868H14.6495Z" fill="#7600BF"/>
<path d="M31.5954 23.5996C31.6298 23.8006 31.6556 24.0053 31.6728 24.2125H15.8271C15.8443 24.0053 15.8701 23.8006 15.9045 23.5996C15.9377 23.3925 15.9794 23.1878 16.0297 22.9868H31.4702C31.5205 23.1878 31.5623 23.3925 31.5954 23.5996Z" fill="#7600BF"/>
<path d="M34.1963 23.5996C34.2221 23.8019 34.2405 24.0066 34.254 24.2125H33.0237C33.0078 24.0066 32.9869 23.8019 32.9574 23.5996C32.9292 23.3925 32.8936 23.189 32.8506 22.9868H34.1018C34.1398 23.189 34.1705 23.3937 34.1963 23.5996Z" fill="#7600BF"/>
<path d="M36.8138 23.5996C36.8335 23.8031 36.8495 24.0066 36.8605 24.2125H35.629C35.6191 24.0066 35.6019 23.8031 35.5786 23.5996C35.5565 23.3937 35.5295 23.189 35.4951 22.9868H36.7389C36.7684 23.189 36.7942 23.3937 36.8138 23.5996Z" fill="#7600BF"/>
<path d="M47.5003 23.5996C47.5003 23.9379 47.2253 24.2125 46.8864 24.2125H37.4748C37.4748 24.2027 37.4736 24.1929 37.4736 24.183C37.4637 23.9931 37.449 23.8019 37.4306 23.5996C37.4294 23.58 37.4269 23.5604 37.4257 23.5408C37.4085 23.3643 37.3864 23.1829 37.3594 22.9868H46.8864C47.2253 22.9868 47.5003 23.2614 47.5003 23.5996Z" fill="#7600BF"/>
<path d="M10.1409 26.8035H0.613933C0.275042 26.8035 0 26.5302 0 26.1907C0 25.8512 0.275042 25.5779 0.613933 25.5779H10.0268C10.0268 25.5889 10.0268 25.5999 10.028 25.611C10.0353 25.7899 10.0501 25.9811 10.0697 26.1907C10.071 26.2103 10.0722 26.2299 10.0746 26.2495C10.0918 26.426 10.1139 26.6074 10.1409 26.8035Z" fill="#7600BF"/>
<path d="M14.5427 26.1907C14.571 26.3978 14.6066 26.6025 14.6495 26.8035H13.3983C13.3603 26.6013 13.3296 26.3966 13.3038 26.1907C13.278 25.9885 13.2596 25.7838 13.2461 25.5779H14.4764C14.4924 25.7838 14.5133 25.9885 14.5427 26.1907Z" fill="#7600BF"/>
<path d="M31.6728 25.5779C31.6556 25.785 31.6298 25.9897 31.5954 26.1907C31.5623 26.3978 31.5205 26.6025 31.4702 26.8035H16.0297C15.9794 26.6025 15.9377 26.3978 15.9045 26.1907C15.8701 25.9897 15.8443 25.785 15.8271 25.5779H31.6728Z" fill="#7600BF"/>
<path d="M33.0237 25.5779H34.254C34.2405 25.7838 34.2221 25.9885 34.1963 26.1907C34.1705 26.3966 34.1398 26.6013 34.1018 26.8035H32.8506C32.8936 26.6025 32.9292 26.3978 32.9574 26.1907C32.9869 25.9885 33.0078 25.7838 33.0237 25.5779Z" fill="#7600BF"/>
<path d="M36.8605 25.5779C36.8495 25.7838 36.8335 25.9872 36.8138 26.1907C36.7942 26.3966 36.7684 26.6013 36.7389 26.8035H35.4951C35.5295 26.6013 35.5565 26.3966 35.5786 26.1907C35.6019 25.9872 35.6191 25.7838 35.629 25.5779H36.8605Z" fill="#7600BF"/>
<path d="M47.5003 26.1907C47.5003 26.5302 47.2253 26.8035 46.8864 26.8035H37.3594C37.3864 26.6074 37.4085 26.426 37.4257 26.2483C37.4269 26.2287 37.4294 26.2091 37.4306 26.1907C37.449 25.9885 37.4637 25.7973 37.4736 25.611C37.4736 25.5999 37.4748 25.5889 37.4748 25.5779H46.8864C47.2253 25.5779 47.5003 25.8524 47.5003 26.1907Z" fill="#7600BF"/>
<path d="M31.7024 24.8953C31.7024 25.1257 31.6926 25.3537 31.6729 25.578C31.6557 25.7851 31.63 25.9898 31.5956 26.1908C31.5624 26.398 31.5207 26.6026 31.4703 26.8036C30.6145 30.2661 27.4822 32.8338 23.7495 32.8338C20.0168 32.8338 16.8857 30.2661 16.0299 26.8036C15.9796 26.6026 15.9378 26.398 15.9047 26.1908C15.8703 25.9898 15.8445 25.7851 15.8273 25.578C15.8077 25.3537 15.7979 25.1257 15.7979 24.8953C15.7979 24.6649 15.8077 24.4369 15.8273 24.2126C15.8445 24.0055 15.8703 23.8008 15.9047 23.5998C15.9378 23.3927 15.9796 23.188 16.0299 22.987C16.8857 19.5245 20.0168 16.958 23.7495 16.958C27.4822 16.958 30.6145 19.5245 31.4703 22.987C31.5207 23.188 31.5624 23.3927 31.5956 23.5998C31.63 23.8008 31.6557 24.0055 31.6729 24.2126C31.6926 24.4369 31.7024 24.6649 31.7024 24.8953Z" fill="url(#paint0_linear_73_823)"/>
<g clip-path="url(#clip0_73_823)">
<path d="M25.6429 27.0404C25.5718 27.0404 25.502 27.0387 25.4326 27.0371V25.7631C25.5033 25.7648 25.5718 25.7678 25.645 25.7682C26.8663 25.7648 27.7748 25.5684 28.3716 25.1849C28.3686 26.2847 28.3674 25.5373 28.3766 25.7838C28.3388 26.7343 27.1826 27.0362 25.6429 27.0404ZM25.6429 22.8347C27.183 22.8305 28.3388 22.5285 28.3766 21.5784C28.3421 20.6654 27.1776 20.3264 25.6429 20.3218C24.1028 20.3264 22.9453 20.646 22.9092 21.5784C22.947 22.526 24.1087 22.8309 25.6429 22.8347ZM25.645 23.6653C25.5521 23.6653 25.4642 23.6615 25.375 23.659C25.4082 23.7936 25.4271 23.9286 25.4322 24.0594L25.4293 24.9342C25.4999 24.9359 25.5706 24.9371 25.6429 24.9376C27.183 24.9334 28.3388 24.6314 28.3766 23.6809C28.3674 23.4344 28.3686 24.1818 28.3716 23.082C27.7748 23.4656 26.8668 23.662 25.645 23.6653ZM24.5864 25.6159C23.9896 25.9995 23.0816 26.1959 21.8599 26.1993C20.6406 26.1959 19.7339 26.0008 19.1362 25.6206C19.1417 26.6051 19.1434 25.7106 19.124 26.2153C19.1619 27.1628 20.3235 27.4677 21.8577 27.4719C23.3979 27.4677 24.5536 27.1658 24.5915 26.2153C24.5822 25.9688 24.5835 26.7162 24.5864 25.6164V25.6159ZM21.8577 25.3581C23.3979 25.3539 24.5536 25.052 24.5915 24.1019C24.557 23.1888 23.3924 22.8498 21.8577 22.8452C20.3176 22.8498 19.1602 23.1695 19.124 24.1019C19.1619 25.0494 20.3235 25.3544 21.8577 25.3581ZM24.5864 27.7083C23.9896 28.0919 23.0816 28.2883 21.8599 28.2916C20.6406 28.2883 19.7339 28.0931 19.1362 27.7129C19.1362 27.7129 19.1434 27.8029 19.124 28.3076C19.1619 29.2552 20.3235 29.5601 21.8577 29.5643C23.3979 29.5601 24.5536 29.2581 24.5915 28.3076C24.5822 28.0612 24.5864 27.7087 24.5864 27.7087V27.7083ZM28.3716 27.2877C27.7748 27.6713 26.8668 27.8677 25.645 27.8711C25.6442 27.8711 25.6437 27.8711 25.6429 27.8711C25.5685 27.8711 25.4991 27.8677 25.4271 27.866C25.4234 27.9737 25.4297 28.237 25.4322 28.3408C25.4204 28.6373 25.351 28.9002 25.2307 29.1332C25.3649 29.1387 25.5016 29.1429 25.6429 29.1433C27.183 29.1391 28.3388 28.8371 28.3766 27.8866C28.3674 27.6402 28.3686 28.3875 28.3716 27.2877Z" fill="#7600BF"/>
</g>
<path d="M34.2543 24.2127H33.024C33.0399 24.4383 33.0485 24.6662 33.0485 24.8954C33.0485 25.1246 33.0399 25.3526 33.024 25.5781H34.2543C34.269 25.3526 34.2764 25.1246 34.2764 24.8954C34.2764 24.6662 34.269 24.4383 34.2543 24.2127ZM34.2543 24.2127C34.2408 24.0068 34.2223 23.8021 34.1966 23.5999C34.1708 23.394 34.1401 23.1893 34.102 22.9871C33.2008 18.1016 28.902 14.3892 23.7499 14.3892C18.5978 14.3892 14.3002 18.1016 13.399 22.9871C13.3609 23.1893 13.3302 23.394 13.3044 23.5999C13.2786 23.8021 13.2602 24.0068 13.2467 24.2127C13.232 24.4383 13.2246 24.6662 13.2246 24.8954C13.2246 25.1246 13.232 25.3526 13.2467 25.5781C13.2602 25.784 13.2786 25.9887 13.3044 26.1909C13.3302 26.3968 13.3609 26.6015 13.399 26.8038C14.3002 31.6892 18.5978 35.4029 23.7499 35.4029C28.902 35.4029 33.2008 31.6892 34.102 26.8038C34.1401 26.6015 34.1708 26.3968 34.1966 26.1909C34.2223 25.9887 34.2408 25.784 34.2543 25.5781C34.269 25.3526 34.2764 25.1246 34.2764 24.8954C34.2764 24.6662 34.269 24.4383 34.2543 24.2127ZM32.9576 26.1909C32.9294 26.3981 32.8938 26.6027 32.8508 26.8038C31.9668 31.0102 28.2218 34.1773 23.7499 34.1773C19.278 34.1773 15.5342 31.0102 14.6502 26.8038C14.6072 26.6027 14.5716 26.3981 14.5433 26.1909C14.5139 25.9887 14.493 25.784 14.477 25.5781C14.4611 25.3526 14.4525 25.1246 14.4525 24.8954C14.4525 24.6662 14.4611 24.4383 14.477 24.2127C14.493 24.0068 14.5139 23.8021 14.5433 23.5999C14.5716 23.3928 14.6072 23.1893 14.6502 22.9871C15.5342 18.7819 19.2792 15.6148 23.7499 15.6148C28.2205 15.6148 31.9668 18.7819 32.8508 22.9871C32.8938 23.1893 32.9294 23.3928 32.9576 23.5999C32.9871 23.8021 33.008 24.0068 33.024 24.2127C33.0399 24.4383 33.0485 24.6662 33.0485 24.8954C33.0485 25.1246 33.0399 25.3526 33.024 25.5781C33.008 25.784 32.9871 25.9887 32.9576 26.1909ZM34.2543 24.2127H33.024C33.0399 24.4383 33.0485 24.6662 33.0485 24.8954C33.0485 25.1246 33.0399 25.3526 33.024 25.5781H34.2543C34.269 25.3526 34.2764 25.1246 34.2764 24.8954C34.2764 24.6662 34.269 24.4383 34.2543 24.2127ZM14.477 25.5781C14.4611 25.3526 14.4525 25.1246 14.4525 24.8954C14.4525 24.6662 14.4611 24.4383 14.477 24.2127H13.2467C13.232 24.4383 13.2246 24.6662 13.2246 24.8954C13.2246 25.1246 13.232 25.3526 13.2467 25.5781C13.2602 25.784 13.2786 25.9887 13.3044 26.1909H14.5433C14.5139 25.9887 14.493 25.784 14.477 25.5781Z" fill="url(#paint1_linear_73_823)"/>
<path d="M36.8602 24.2126C36.8492 24.0067 36.8332 23.8033 36.8136 23.5998C36.7939 23.3939 36.7681 23.1892 36.7387 22.987C36.1935 19.2782 34.0865 16.0682 31.1077 14.0483H28.5967C32.1906 15.6539 34.8465 18.9889 35.4948 22.987C35.5292 23.1892 35.5562 23.3939 35.5783 23.5998C35.6017 23.8033 35.6188 24.0067 35.6287 24.2126C35.6434 24.4382 35.6495 24.6661 35.6495 24.8953C35.6495 25.1245 35.6434 25.3525 35.6287 25.578C35.6188 25.7839 35.6017 25.9874 35.5783 26.1908C35.5562 26.3967 35.5292 26.6014 35.4948 26.8037H36.7387C36.7681 26.6014 36.7939 26.3967 36.8136 26.1908C36.8332 25.9874 36.8492 25.7839 36.8602 25.578C36.8713 25.3525 36.8774 25.1245 36.8774 24.8953C36.8774 24.6661 36.8713 24.4382 36.8602 24.2126Z" fill="#7600BF"/>
<path d="M36.7388 26.8037C35.8105 33.1292 30.3391 38 23.7492 38C17.1592 38 11.6891 33.1292 10.7608 26.8037C10.7314 26.6014 10.7056 26.3967 10.6859 26.1908C10.6663 25.9874 10.6503 25.7839 10.6405 25.578C10.6282 25.3525 10.6221 25.1245 10.6221 24.8953C10.6221 24.6661 10.6282 24.4382 10.6405 24.2126C10.6503 24.0067 10.6663 23.8033 10.6859 23.5998C10.7056 23.3939 10.7314 23.1892 10.7608 22.987C11.306 19.2782 13.413 16.0682 16.3918 14.0483H18.9016C15.3088 15.6539 12.653 18.9889 12.0046 22.987C11.9703 23.1892 11.9433 23.3939 11.9212 23.5998C11.8978 23.8033 11.8806 24.0067 11.8708 24.2126C11.8561 24.4382 11.8499 24.6661 11.8499 24.8953C11.8499 25.1245 11.8561 25.3525 11.8708 25.578C11.8806 25.7839 11.8978 25.9874 11.9212 26.1908C11.9433 26.3967 11.9703 26.6014 12.0046 26.8037C12.9206 32.4502 17.8382 36.7743 23.7492 36.7743C29.6601 36.7743 34.579 32.4502 35.495 26.8037H36.7388Z" fill="#7600BF"/>
<path d="M31.3968 6.76435C31.8142 7.41517 32.0168 8.02432 31.7221 8.77932C31.4213 9.55025 30.746 10.5798 29.8165 10.5798C29.7723 10.5798 29.7281 10.5773 29.6827 10.5724C28.1466 10.4119 28.5567 8.51826 29.2787 7.13572C29.8374 6.06573 31.1377 5.84512 31.1377 5.84512L30.0056 2.58489L27.6149 5.0178C27.9207 5.64288 28.192 6.29615 28.2424 6.98987C28.2927 7.68359 28.1589 8.40182 27.7893 8.99136C27.4197 9.57967 26.8917 10.0074 26.1955 10.0074C25.0143 10.0074 24.6644 8.70823 24.6361 7.751C24.6091 6.83054 24.6251 5.84267 24.8805 4.95284C25.0475 4.37311 25.325 3.80809 25.7547 3.37789C25.8824 3.24919 26.0298 3.1156 26.1955 3.03593L23.9436 0L21.6917 3.03593C21.8575 3.1156 22.0048 3.24919 22.1325 3.37789C22.5623 3.80809 22.8398 4.37311 23.0068 4.95284C23.2621 5.84267 23.2781 6.83054 23.2511 7.751C23.2241 8.70823 22.8729 10.0074 21.6917 10.0074C20.9955 10.0074 20.4675 9.57967 20.0979 8.99136C19.7283 8.40182 19.5945 7.68359 19.6449 6.98987C19.6964 6.29615 19.9666 5.64288 20.2723 5.0178L17.8816 2.58489L16.7495 5.84512C16.7495 5.84512 18.0499 6.06573 18.6085 7.13572C19.3305 8.51826 19.7406 10.4119 18.2046 10.5724C18.1591 10.5773 18.1149 10.5798 18.0707 10.5798C17.1412 10.5798 16.4659 9.55025 16.1651 8.77932C15.8716 8.02432 16.0742 7.41517 16.4905 6.76435L13.1445 4.74694L17.1891 13.2137H30.6981L34.7427 4.74694L31.3968 6.76435Z" fill="url(#paint2_linear_73_823)"/>
<defs>
<linearGradient id="paint0_linear_73_823" x1="15.7979" y1="24.8965" x2="31.7024" y2="24.8965" gradientUnits="userSpaceOnUse">
<stop stop-color="#F7D87E"/>
<stop offset="0.74" stop-color="#D6B667"/>
</linearGradient>
<linearGradient id="paint1_linear_73_823" x1="13.2246" y1="4.97391e-05" x2="34.2764" y2="4.97391e-05" gradientUnits="userSpaceOnUse">
<stop stop-color="#F7D87E"/>
<stop offset="0.74" stop-color="#D6B667"/>
</linearGradient>
<linearGradient id="paint2_linear_73_823" x1="23.9436" y1="6.60624" x2="23.9436" y2="14.8929" gradientUnits="userSpaceOnUse">
<stop stop-color="#F7D87E"/>
<stop offset="0.85" stop-color="#D6B667"/>
</linearGradient>
<clipPath id="clip0_73_823">
<rect width="10.0938" height="10.0938" fill="white" transform="translate(18.7031 19.8906)"/>
</clipPath>
</defs>
</svg>
