<svg width="20" height="20" viewBox="0 0 20 20" fill="none" xmlns="http://www.w3.org/2000/svg">
<g id="Hicon / Linear / Search 2" clip-path="url(#clip0_73_2579)">
<g id="Search 2">
<path id="Vector" d="M16.364 14.4699C16.0712 14.177 15.5963 14.177 15.3034 14.4699C15.0105 14.7628 15.0105 15.2377 15.3034 15.5306L16.364 14.4699ZM18.6366 18.8639C18.9295 19.1568 19.4044 19.1568 19.6973 18.8639C19.9902 18.571 19.9902 18.0961 19.6973 17.8032L18.6366 18.8639ZM15.8337 15.0002L15.3034 15.5306L18.6366 18.8639L19.167 18.3335L19.6973 17.8032L16.364 14.4699L15.8337 15.0002ZM9.16699 15.8335V15.0835C5.43907 15.0835 2.41699 12.0614 2.41699 8.3335H1.66699H0.916992C0.916992 12.8898 4.61064 16.5835 9.16699 16.5835V15.8335ZM16.667 8.3335H15.917C15.917 12.0614 12.8949 15.0835 9.16699 15.0835V15.8335V16.5835C13.7233 16.5835 17.417 12.8898 17.417 8.3335H16.667ZM9.16699 0.833496V1.5835C12.8949 1.5835 15.917 4.60557 15.917 8.3335H16.667H17.417C17.417 3.77715 13.7233 0.0834961 9.16699 0.0834961V0.833496ZM9.16699 0.833496V0.0834961C4.61064 0.0834961 0.916992 3.77715 0.916992 8.3335H1.66699H2.41699C2.41699 4.60557 5.43907 1.5835 9.16699 1.5835V0.833496Z" fill="#546881"/>
</g>
</g>
<defs>
<clipPath id="clip0_73_2579">
<rect width="20" height="20" fill="white"/>
</clipPath>
</defs>
</svg>
